<svg id="Layer_1" data-name="Layer 1" xmlns="http://www.w3.org/2000/svg" viewBox="0 0 207.74 177.23"><defs><style>.cls-1{fill:#0f0f0f;}.cls-2{fill:#6e6ebd;}</style></defs><path class="cls-1" d="M63.38,7.74a7,7,0,0,0-7,7V146.23a39,39,0,0,1-1.58,12,20.15,20.15,0,0,1-4.2,7.6,15,15,0,0,1-6,4c-.61.21-1.26.33-1.89.48A58.26,58.26,0,0,0,63.67,170c32.26-7,32-38.52,32-47.08V7.74Z"/><path class="cls-2" d="M197.18,126.47a73.72,73.72,0,0,1-5.61,14.19,60.47,60.47,0,0,1-6.84,10.18,46.62,46.62,0,0,1-19.38,13.88,2.39,2.39,0,0,0-1.55,2.22V167a2.38,2.38,0,0,0,2.38,2.37h32.38a2.37,2.37,0,0,0,2.37-2.37V127.11a1.93,1.93,0,0,0-3.75-.64Z"/><circle class="cls-2" cx="25.31" cy="146.4" r="19.99"/><path class="cls-1" d="M112.82,7.68h39.62a0,0,0,0,1,0,0v155.4a7,7,0,0,1-7,7H112.82a0,0,0,0,1,0,0V7.68A0,0,0,0,1,112.82,7.68Z"/></svg>